<?xml version="1.0" encoding="UTF-8" standalone="no"?>
<!-- Created with Inkscape (http://www.inkscape.org/) -->

<svg
   xmlns:dc="http://purl.org/dc/elements/1.1/"
   xmlns:cc="http://creativecommons.org/ns#"
   xmlns:rdf="http://www.w3.org/1999/02/22-rdf-syntax-ns#"
   xmlns:svg="http://www.w3.org/2000/svg"
   xmlns="http://www.w3.org/2000/svg"
   xmlns:sodipodi="http://sodipodi.sourceforge.net/DTD/sodipodi-0.dtd"
   xmlns:inkscape="http://www.inkscape.org/namespaces/inkscape"
   width="627.1828"
   height="168.52435"
   id="svg2"
   version="1.1"
   inkscape:version="0.48.0 r9654"
   sodipodi:docname="Document nou 1">
  <defs
     id="defs4" />
  <sodipodi:namedview
     id="base"
     pagecolor="#ffffff"
     bordercolor="#666666"
     borderopacity="1.0"
     inkscape:pageopacity="0.0"
     inkscape:pageshadow="2"
     inkscape:zoom="0.7"
     inkscape:cx="21.295276"
     inkscape:cy="-217.13555"
     inkscape:document-units="px"
     inkscape:current-layer="layer1"
     showgrid="false"
     fit-margin-top="0"
     fit-margin-left="0"
     fit-margin-right="0"
     fit-margin-bottom="0"
     inkscape:window-width="1614"
     inkscape:window-height="997"
     inkscape:window-x="66"
     inkscape:window-y="24"
     inkscape:window-maximized="1" />
  <metadata
     id="metadata7">
    <rdf:RDF>
      <cc:Work
         rdf:about="">
        <dc:format>image/svg+xml</dc:format>
        <dc:type
           rdf:resource="http://purl.org/dc/dcmitype/StillImage" />
        <dc:title></dc:title>
      </cc:Work>
    </rdf:RDF>
  </metadata>
  <g
     inkscape:label="Layer 1"
     inkscape:groupmode="layer"
     id="layer1"
     transform="translate(-26.848352,-95.727176)">
    <g
       id="g3416">
      <g
         id="g3264"
         inkscape:label="ink_ext_XXXXXX"
         transform="matrix(0.375,0,0,-0.375,9.040527,267.1833)">
        <g
           id="g3266"
           transform="scale(0.1,0.1)">
          <path
             inkscape:connector-curvature="0"
             d="m 2142.56,4526.44 c -8.16,-26.53 -24.4,-117 -36.75,-204.75 C 2066.57,4042.88 1941.47,3869.24 1374.75,3307.02 789.75,2726.66 652.605,2531.73 529.773,2106 435.887,1780.59 465.719,1258.23 594.086,979.875 875.609,369.414 1550.25,27.6328 2361.94,84.2656 2691,107.223 3129.45,237.703 3389.34,390.016 4048.61,776.383 4492.03,1703.81 4349.63,2398.5 c -100.38,489.71 -309.47,737.55 -1007.82,1194.58 -398.53,260.82 -552.28,410.41 -677.48,659.14 -90.18,179.16 -133.13,216.23 -218.3,188.46 -40.4,-13.18 -70.26,5.32 -85.31,52.85 -26.63,84.09 -194.61,109.43 -218.16,32.91 z M 2340,3959.72 c 0,-16.42 41.7,-74.95 95.06,-133.45 73.39,-80.44 115.49,-98.79 184.64,-80.44 67.51,17.91 120.66,-3.71 215.72,-87.75 69.93,-61.82 276.05,-211.77 462.52,-336.48 639.84,-427.92 812.1,-678.31 813.67,-1182.69 1.16,-376.6 -103.78,-691.21 -345.13,-1034.72 -296.67,-422.229 -713.51,-664.905 -1283.89,-747.44 -526.5,-76.191 -1050.73,59.156 -1382.06,356.824 -81.76,73.461 -203.917,244.364 -268.733,375.986 -103.192,209.56 -118.418,277.88 -115.719,519.19 6.234,556.66 201.641,893.35 943.862,1626.24 285.18,281.61 541.14,567.05 567.89,633.32 42.8,106.03 112.17,162.56 112.17,91.41"
             style="fill:#000000;fill-opacity:1;fill-rule:nonzero;stroke:none"
             id="path3268" />
          <path
             inkscape:connector-curvature="0"
             d="m 2157.19,3290.62 c 0,-21.93 6.58,-36.56 16.45,-36.56 9.87,0 25.23,14.63 38.39,36.56 12.54,20.9 5.49,36.57 -16.45,36.57 -21.94,0 -38.39,-15.67 -38.39,-36.57"
             style="fill:#000000;fill-opacity:1;fill-rule:nonzero;stroke:none"
             id="path3270" />
          <path
             inkscape:connector-curvature="0"
             d="m 2508.19,2866.5 c -13.71,-36.56 -5.49,-52.96 21.93,-43.72 54.85,18.47 84.8,102.22 36.57,102.22 -20.57,0 -46.16,-25.59 -58.5,-58.5"
             style="fill:#000000;fill-opacity:1;fill-rule:nonzero;stroke:none"
             id="path3272" />
          <path
             inkscape:connector-curvature="0"
             d="m 3180.94,2890.27 c 0,-21.94 15.67,-38.39 36.56,-38.39 21.94,0 36.56,6.58 36.56,16.45 0,9.87 -14.62,25.22 -36.56,38.39 -20.89,12.53 -36.56,5.48 -36.56,-16.45"
             style="fill:#000000;fill-opacity:1;fill-rule:nonzero;stroke:none"
             id="path3274" />
          <path
             inkscape:connector-curvature="0"
             d="m 1926.84,2793.38 c -43.59,-43.6 -25.59,-186.47 29.25,-232.18 128.54,-107.11 271,71.3 162.04,202.92 -45.4,54.85 -149.74,70.8 -191.29,29.26"
             style="fill:#000000;fill-opacity:1;fill-rule:nonzero;stroke:none"
             id="path3276" />
          <path
             inkscape:connector-curvature="0"
             d="m 2786.06,2771.44 c -101.7,-101.71 -10.97,-304.28 124.32,-277.51 98.08,19.39 134.55,109.32 90.29,222.66 -41.4,106.03 -138.58,130.87 -214.61,54.85"
             style="fill:#000000;fill-opacity:1;fill-rule:nonzero;stroke:none"
             id="path3278" />
          <path
             inkscape:connector-curvature="0"
             d="m 2632.5,2413.12 c 0,-21.93 14.62,-36.56 36.56,-36.56 21.94,0 36.56,14.63 36.56,36.56 0,21.94 -14.62,36.57 -36.56,36.57 -21.94,0 -36.56,-14.63 -36.56,-36.57"
             style="fill:#000000;fill-opacity:1;fill-rule:nonzero;stroke:none"
             id="path3280" />
          <path
             inkscape:connector-curvature="0"
             d="m 1133.44,2305.27 c 0,-21.94 15.67,-38.39 36.56,-38.39 21.94,0 36.56,6.58 36.56,16.45 0,9.87 -14.62,25.22 -36.56,38.39 -20.89,12.53 -36.56,5.48 -36.56,-16.45"
             style="fill:#000000;fill-opacity:1;fill-rule:nonzero;stroke:none"
             id="path3282" />
          <path
             inkscape:connector-curvature="0"
             d="m 1469.96,2296.12 c 23.41,-69.46 102.23,-80.74 102.23,-14.62 0,32.91 -25.6,58.5 -58.5,58.5 -32.91,0 -52.04,-19.2 -43.73,-43.88"
             style="fill:#000000;fill-opacity:1;fill-rule:nonzero;stroke:none"
             id="path3284" />
          <path
             inkscape:connector-curvature="0"
             d="m 3424.08,2248.59 c -10.73,-29.25 -3.9,-54.84 14.62,-54.84 18.53,0 34.74,25.59 34.74,54.84 0,29.25 -6.83,54.85 -14.63,54.85 -7.8,0 -24.01,-25.6 -34.73,-54.85"
             style="fill:#000000;fill-opacity:1;fill-rule:nonzero;stroke:none"
             id="path3286" />
          <path
             inkscape:connector-curvature="0"
             d="m 2233.97,2179.12 c -1.93,-36.56 6.73,-59.07 18.28,-47.53 11.81,11.82 13.5,43.88 3.66,69.47 -11.55,30.02 -19.63,21.94 -21.94,-21.94"
             style="fill:#000000;fill-opacity:1;fill-rule:nonzero;stroke:none"
             id="path3288" />
          <path
             inkscape:connector-curvature="0"
             d="m 3656.25,2138.91 c 0,-29.25 6.82,-54.85 14.63,-54.85 7.8,0 24,25.6 34.73,54.85 10.73,29.25 3.9,54.84 -14.63,54.84 -18.52,0 -34.73,-25.59 -34.73,-54.84"
             style="fill:#000000;fill-opacity:1;fill-rule:nonzero;stroke:none"
             id="path3290" />
          <path
             inkscape:connector-curvature="0"
             d="m 1133.44,1919.53 c 0,-32.91 20.65,-55.14 43.87,-47.24 52.1,17.72 47.53,78.32 -7.31,96.97 -19.36,6.58 -36.56,-16.82 -36.56,-49.73"
             style="fill:#000000;fill-opacity:1;fill-rule:nonzero;stroke:none"
             id="path3292" />
          <path
             inkscape:connector-curvature="0"
             d="m 1989,1882.63 c -270.56,-58.07 -526.5,-182.32 -526.5,-255.6 0,-70.64 7.31,-69.42 215.72,36.19 162.7,82.46 522.84,164.9 720.28,164.9 54.31,0 96.52,-43.87 144.24,-149.9 80.62,-179.16 211.9,-288.84 345.7,-288.84 115.89,0 165.29,47.53 201.41,193.78 17.15,69.46 42.9,95.61 80.12,81.34 266.91,-102.38 321.09,-19.3 62.15,95.3 -190.17,84.18 -650.81,175.07 -873.84,172.43 -81.51,-0.96 -244.97,-22.92 -369.28,-49.6 z m 855.56,-113.74 c 117,-23.4 171.34,-108 133.37,-207.67 -37.04,-97.23 -184.81,-73.13 -269.01,43.87 -128.81,178.98 -102.01,211.34 135.64,163.8"
             style="fill:#000000;fill-opacity:1;fill-rule:nonzero;stroke:none"
             id="path3294" />
          <path
             inkscape:connector-curvature="0"
             d="m 1096.88,1371.09 c 0,-32.9 20.64,-55.13 43.87,-47.23 52.1,17.71 47.53,78.31 -7.31,96.96 -19.36,6.58 -36.56,-16.82 -36.56,-49.73"
             style="fill:#000000;fill-opacity:1;fill-rule:nonzero;stroke:none"
             id="path3296" />
          <path
             inkscape:connector-curvature="0"
             d="m 2358.28,1316.25 c -13.16,-21.94 -7.31,-36.56 14.63,-36.56 21.93,0 45.33,14.62 58.5,36.56 13.16,21.94 7.31,36.56 -14.63,36.56 -21.94,0 -45.33,-14.62 -58.5,-36.56"
             style="fill:#000000;fill-opacity:1;fill-rule:nonzero;stroke:none"
             id="path3298" />
          <path
             inkscape:connector-curvature="0"
             d="m 3583.12,1279.69 c 0,-21.94 6.59,-36.57 16.46,-36.57 9.87,0 25.22,14.63 38.39,36.57 12.53,20.89 5.48,36.56 -16.45,36.56 -21.94,0 -38.4,-15.67 -38.4,-36.56"
             style="fill:#000000;fill-opacity:1;fill-rule:nonzero;stroke:none"
             id="path3300" />
          <path
             inkscape:connector-curvature="0"
             d="m 2749.5,987.188 c 0,-51.188 8.04,-71.297 18.28,-45.704 10.24,25.594 10.24,65.816 0,91.406 -10.24,25.59 -18.28,5.49 -18.28,-45.702"
             style="fill:#000000;fill-opacity:1;fill-rule:nonzero;stroke:none"
             id="path3302" />
        </g>
      </g>
      <g
         id="g3351"
         inkscape:label="ink_ext_XXXXXX"
         transform="matrix(0.375,0,0,-0.375,245.88781,267.39502)">
        <g
           id="g3353"
           transform="scale(0.1,0.1)">
          <path
             inkscape:connector-curvature="0"
             d="M 1332.83,4178.96 C 1118.73,4154.74 901.281,4066.27 736.977,3936.53 523.965,3768.34 382.164,3549.79 313.492,3283.82 246.84,3025.7 275.504,2732.91 391.418,2487.75 462.141,2338.17 537.352,2237.47 688.73,2089.69 915.184,1868.61 1255.03,1531.9 1764.04,1024.32 l 548.81,-547.277 78.4,75.687 c 43.21,41.715 139.32,135.641 214.1,209.243 274.4,270.077 521.46,510.687 663.4,646.087 41.75,39.83 110.36,105.71 153.79,147.65 98.21,94.88 270.18,258.95 486.08,463.75 209.88,199.09 268.02,267.51 343.14,403.75 81.13,147.16 138.14,336.4 140.81,467.4 0.51,25.33 2.86,46.46 5.16,46.48 6.03,0.05 6.59,122.99 0.59,129.02 -2.28,2.28 -3.49,14.47 -2.64,26.53 2.44,34.86 -16,148.97 -35.57,220.13 -104.5,379.95 -393.31,686.36 -763.88,810.43 -145.23,48.62 -310.6,69.35 -457.75,57.37 -288.88,-23.5 -533.8,-133.17 -748.43,-335.14 -27.14,-25.53 -49.93,-45.96 -51.27,-45.96 -1.33,0 -27.74,24.33 -59.1,54.45 -191.63,184.07 -436.64,298.1 -699.58,325.58 -66.95,7 -182.89,6.75 -247.27,-0.54 z m 238.22,-132.64 c 129.66,-14.86 246.09,-49.67 361.85,-108.21 108.93,-55.09 186.96,-113.29 303.96,-226.73 l 100.11,-97.06 90.47,87.6 c 141.35,136.88 250.28,211.46 393.81,269.63 247.87,100.47 537.76,102.16 782.21,4.59 358.39,-143.04 615,-481.84 655.02,-864.8 31.02,-296.72 -62.59,-593.79 -256.9,-815.38 -44.96,-51.26 -267,-267.07 -301.02,-292.55 -45.13,-33.82 -161.63,-83.48 -268.98,-114.66 -236.41,-68.66 -499.82,-79.16 -718.28,-28.63 -126.65,29.3 -283.45,89.81 -337.73,130.34 -17.49,13.06 -35.78,23.86 -40.41,23.86 -4.62,0 -53.67,22.56 -108.55,49.93 -103.13,51.44 -177.11,79.1 -278.03,103.95 -258.86,63.76 -533.73,44.78 -802.11,-55.4 -57.89,-21.6 -173.771,-76.25 -184.54,-87.02 -3.055,-3.05 -9.653,-5.43 -15.078,-5.43 -16.793,0 -294.188,285.86 -337.672,347.99 -102.282,146.11 -165.489,305.16 -190.067,478.25 -10.617,74.78 -11.875,205.05 -2.703,279.83 13.32,108.56 71.473,293.41 115.356,366.68 83.433,139.31 141.863,212.12 238.379,297.06 218.855,192.61 518.655,288.49 800.905,256.16"
             style="fill:#000000;fill-opacity:1;fill-rule:nonzero;stroke:none"
             id="path3355" />
          <path
             inkscape:connector-curvature="0"
             d="m 3200.04,3708.4 c -16.95,-79.41 -82.13,-269.58 -133.13,-388.39 -52.34,-121.97 -119.33,-258.12 -189.3,-384.77 -75.29,-136.3 -96.27,-198.35 -101.29,-299.74 -3.71,-74.78 6.07,-125.67 35.59,-185.14 49.2,-99.15 160.12,-184.56 281.94,-217.13 50.54,-13.52 144.74,-13.05 202.04,1 62.11,15.23 145.79,58.27 188.76,97.09 97.58,88.15 138.96,223.37 113.22,369.92 -15.56,88.57 -42.75,161.03 -115.66,308.18 -138.66,279.83 -219.37,493.03 -255.73,675.46 -6.96,34.98 -13.29,65.75 -14.12,68.75 -0.82,2.98 -6.4,-17.49 -12.32,-45.23"
             style="fill:#000000;fill-opacity:1;fill-rule:nonzero;stroke:none"
             id="path3357" />
        </g>
      </g>
      <g
         id="g3390"
         inkscape:label="ink_ext_XXXXXX"
         transform="matrix(0.375,0,0,-0.375,491.72678,266.14527)">
        <g
           id="g3392"
           transform="scale(0.1,0.1)">
          <path
             inkscape:connector-curvature="0"
             d="m 2141.49,4449.66 c -7.6,-24.62 -21.2,-109.69 -30.98,-193.78 C 2079.22,3986.81 1971.2,3831.75 1450.82,3308.91 668.438,2522.81 530.461,2267.45 532.184,1608.75 533.422,1137.09 616.789,896.363 877.859,610.594 1196.34,261.988 1616.06,99.1445 2193.75,100.055 c 943.31,1.484 1662.84,468.015 1999.79,1296.635 117.45,288.84 162.4,640.15 117.42,917.72 -78.79,486.16 -256.18,716.65 -870.43,1131.02 -482.62,325.59 -645.97,474.75 -779.38,711.73 -78.21,138.93 -131.33,193.78 -187.7,193.78 -43.87,0 -98.85,32.31 -124.42,73.12 -50.39,80.44 -185.46,97.1 -207.54,25.6 z m 282.6,-687.38 c 76.43,-87.75 118.54,-108.39 186.47,-91.4 63.82,15.95 126.14,-8.98 228.52,-91.41 76.95,-61.96 265.08,-197.59 414.98,-299.18 691.03,-468.33 904.62,-839.01 807.23,-1400.98 C 3947.86,1224.84 3498.64,678.059 2906.72,473.977 2043.84,176.477 1196.42,428.773 875.914,1078.59 c -98.023,198.74 -115.262,274.22 -114.402,500.91 2.043,539.37 207.394,899.31 902.078,1581.17 266.91,261.97 515.98,530.9 552.1,596.13 36.45,65.81 75.6,118.82 87.75,118.82 12.03,0 66.52,-51.18 120.65,-113.34"
             style="fill:#000000;fill-opacity:1;fill-rule:nonzero;stroke:none"
             id="path3394" />
          <path
             inkscape:connector-curvature="0"
             d="m 1888.56,2786.06 c -11.45,-18.65 27.32,-78.39 89.47,-137.87 201.55,-192.89 197.44,-219.16 -32.91,-210.24 l -208.4,8.08 255.94,-47.53 c 142.59,-26.48 261.6,-43.48 268.73,-38.39 6.73,4.81 2.3,42.05 -9.37,78.61 -30.34,95.06 -337.88,388.97 -363.46,347.34"
             style="fill:#000000;fill-opacity:1;fill-rule:nonzero;stroke:none"
             id="path3396" />
          <path
             inkscape:connector-curvature="0"
             d="m 2684.02,2764.12 c -41.77,-106.03 -0.91,-186.46 94.73,-186.46 76.17,0 91.41,18.28 91.41,109.68 0,87.75 -16.46,111.89 -82.27,120.66 -47.53,6.34 -91.39,-12.19 -103.87,-43.88"
             style="fill:#000000;fill-opacity:1;fill-rule:nonzero;stroke:none"
             id="path3398" />
          <path
             inkscape:connector-curvature="0"
             d="m 3399.23,1956.09 c -78.47,-95.73 -342.61,-230.21 -613.17,-312.17 -376.59,-114.08 -856.57,-93.89 -1148.06,48.3 -234,114.15 -248.62,116.76 -248.62,44.5 0,-27.84 95.06,-97.45 208.4,-152.61 275.32,-133.97 756.84,-162.58 1144.41,-67.98 255.93,62.48 260.72,62.31 340.03,-11.81 179.16,-167.43 373.75,-172.76 459.47,-12.57 38.08,71.16 17.47,212.06 -42.25,288.84 -24.65,31.69 -17.23,69.47 22.26,113.35 60.96,67.74 46.8,117 -33.64,117 -23.4,0 -64.85,-25.6 -88.83,-54.85 z m 91.75,-288.84 c 72.39,-204.75 -115.39,-305.9 -310.04,-167.02 -131.63,93.91 -134.01,122.87 -14.63,177.84 120.66,55.57 143.58,54 212.07,-14.48 32.9,-32.9 58.5,-40.9 58.5,-18.28 0,21.45 -25.6,49.6 -54.85,60.33 -29.25,10.73 -45.24,35.47 -34.28,53.02 36.69,58.69 105.75,14.62 143.23,-91.41"
             style="fill:#000000;fill-opacity:1;fill-rule:nonzero;stroke:none"
             id="path3400" />
        </g>
      </g>
      <text
         sodipodi:linespacing="125%"
         id="text3408"
         y="198.80536"
         x="196.55966"
         style="font-size:40px;font-style:normal;font-weight:normal;line-height:125%;letter-spacing:0px;word-spacing:0px;fill:#000000;fill-opacity:1;stroke:none;font-family:Sans"
         xml:space="preserve"><tspan
           style="font-size:64px;font-style:normal;font-variant:normal;font-weight:normal;font-stretch:normal;font-family:Ubuntu;-inkscape-font-specification:Ubuntu"
           y="198.80536"
           x="196.55966"
           id="tspan3410"
           sodipodi:role="line">+</tspan></text>
      <text
         sodipodi:linespacing="125%"
         id="text3412"
         y="200.05185"
         x="434.25507"
         style="font-size:40px;font-style:normal;font-weight:normal;line-height:125%;letter-spacing:0px;word-spacing:0px;fill:#000000;fill-opacity:1;stroke:none;font-family:Sans"
         xml:space="preserve"><tspan
           style="font-size:64px"
           y="200.05185"
           x="434.25507"
           id="tspan3414"
           sodipodi:role="line">→</tspan></text>
    </g>
    <text
       xml:space="preserve"
       style="font-size:40px;font-style:normal;font-weight:normal;line-height:125%;letter-spacing:0px;word-spacing:0px;fill:#000000;fill-opacity:1;stroke:none;font-family:Sans"
       x="292.85715"
       y="546.64789"
       id="text3452"
       sodipodi:linespacing="125%"><tspan
         sodipodi:role="line"
         id="tspan3454"
         x="292.85715"
         y="546.64789"></tspan></text>
  </g>
</svg>
