<?xml version="1.0" encoding="UTF-8" standalone="no"?>
<!-- Created with Inkscape (http://www.inkscape.org/) -->

<svg
   xmlns:dc="http://purl.org/dc/elements/1.1/"
   xmlns:cc="http://creativecommons.org/ns#"
   xmlns:rdf="http://www.w3.org/1999/02/22-rdf-syntax-ns#"
   xmlns:svg="http://www.w3.org/2000/svg"
   xmlns="http://www.w3.org/2000/svg"
   xmlns:sodipodi="http://sodipodi.sourceforge.net/DTD/sodipodi-0.dtd"
   xmlns:inkscape="http://www.inkscape.org/namespaces/inkscape"
   width="764.57434"
   height="322.34985"
   id="svg3662"
   version="1.1"
   inkscape:version="0.48.0 r9654"
   sodipodi:docname="Document nou 23">
  <defs
     id="defs3664" />
  <sodipodi:namedview
     id="base"
     pagecolor="#ffffff"
     bordercolor="#666666"
     borderopacity="1.0"
     inkscape:pageopacity="0.0"
     inkscape:pageshadow="2"
     inkscape:zoom="0.7"
     inkscape:cx="211.48192"
     inkscape:cy="277.85669"
     inkscape:document-units="px"
     inkscape:current-layer="layer1"
     showgrid="false"
     fit-margin-top="0"
     fit-margin-left="0"
     fit-margin-right="0"
     fit-margin-bottom="0"
     inkscape:window-width="1614"
     inkscape:window-height="997"
     inkscape:window-x="66"
     inkscape:window-y="24"
     inkscape:window-maximized="1" />
  <metadata
     id="metadata3667">
    <rdf:RDF>
      <cc:Work
         rdf:about="">
        <dc:format>image/svg+xml</dc:format>
        <dc:type
           rdf:resource="http://purl.org/dc/dcmitype/StillImage" />
        <dc:title></dc:title>
      </cc:Work>
    </rdf:RDF>
  </metadata>
  <g
     inkscape:label="Layer 1"
     inkscape:groupmode="layer"
     id="layer1"
     transform="translate(34.66024,-226.29112)">
    <g
       transform="matrix(0.375,0,0,-0.375,-52.711477,475.20663)"
       inkscape:label="ink_ext_XXXXXX"
       id="g3697">
      <g
         transform="scale(0.1,0.1)"
         id="g3699">
        <path
           id="path3701"
           style="fill:#000000;fill-opacity:1;fill-rule:nonzero;stroke:none"
           d="m 2139.51,4526.44 c -8.42,-26.3 -25.39,-124.32 -37.97,-219.38 -33.48,-252.91 -207.6,-487 -781.63,-1050.78 C 771.469,2717.64 601.172,2457.77 510.992,2021.91 451.988,1736.72 483.691,1309.91 583.234,1049.34 694.184,758.918 1001.81,432.578 1294.31,295.016 1878.02,20.5 2665.41,49.1641 3297.94,367.949 c 459.17,231.418 886.98,791.081 1015.53,1328.551 61.22,255.94 53.61,700.61 -15.32,895.78 -145.86,412.98 -261.65,535.91 -930.74,988.15 -464.35,313.85 -580.41,424.95 -705.66,675.45 -87.75,175.5 -130.89,212.46 -215.72,184.8 -40.4,-13.18 -70.33,5.32 -85.51,52.85 -26.85,84.09 -196.52,109.36 -221.01,32.91 z m 290.07,-678.24 c 111,-120.65 134.69,-131.84 197.44,-93.23 58.5,36 82.45,31.41 133.45,-25.59 34.01,-38.02 237.65,-190.13 449.72,-335.92 723.93,-497.71 898.47,-742.5 894.51,-1254.55 C 4101.09,1674.56 3859.51,1143.68 3506.34,824.035 2957.2,327.02 1893.94,213.059 1308.94,588.52 641.262,1017.04 536.879,1824.47 1051.31,2581.31 c 83.18,122.37 338.07,397.13 564.75,608.77 226.69,211.64 470.92,477.32 541.13,588.65 71.47,113.35 132,203.73 137.11,204.75 5.11,1.03 64.64,-58.5 135.28,-135.28"
           inkscape:connector-curvature="0" />
        <path
           id="path3703"
           style="fill:#000000;fill-opacity:1;fill-rule:nonzero;stroke:none"
           d="m 2669.81,2987.16 c 0.46,-58.5 249.07,-216.66 295.41,-187.93 57.23,35.48 36.56,68.86 -95.06,153.57 -142.6,91.77 -200.88,101.76 -200.35,34.36"
           inkscape:connector-curvature="0" />
        <path
           id="path3705"
           style="fill:#000000;fill-opacity:1;fill-rule:nonzero;stroke:none"
           d="m 1863.98,2881.12 c -116.79,-127.96 -133.43,-175.5 -61.45,-175.5 57.64,0 244.97,190.13 244.97,248.63 0,76.78 -73.41,47.53 -183.52,-73.13"
           inkscape:connector-curvature="0" />
        <path
           id="path3707"
           style="fill:#000000;fill-opacity:1;fill-rule:nonzero;stroke:none"
           d="m 2635.16,2654.44 c -76.28,-93.24 -31.91,-186.47 88.75,-186.47 98.71,0 109.68,10.97 109.68,109.69 0,84.09 -17.91,112.24 -76.78,120.65 -43.87,6.27 -96.01,-12.53 -121.65,-43.87"
           inkscape:connector-curvature="0" />
        <path
           id="path3709"
           style="fill:#000000;fill-opacity:1;fill-rule:nonzero;stroke:none"
           d="m 1907.76,2570.34 c -46.93,-83.52 11.77,-193.78 103.18,-193.78 91.4,0 151.48,106.74 107.01,190.13 -44.86,84.09 -163.83,86.16 -210.19,3.65"
           inkscape:connector-curvature="0" />
        <path
           id="path3711"
           style="fill:#000000;fill-opacity:1;fill-rule:nonzero;stroke:none"
           d="m 2350.97,1827.71 c -190.13,-38.44 -576.62,-207.41 -634.61,-277.46 -83.73,-101.12 9.39,-95.39 250.7,15.43 361.97,166.22 556.64,201.32 859.22,154.9 138.94,-21.32 310.6,-63.35 382.08,-93.55 73.12,-30.9 137.78,-46.86 148.08,-36.56 130.89,130.89 -636.19,311.89 -1005.47,237.24"
           inkscape:connector-curvature="0" />
      </g>
    </g>
    <g
       id="g4096"
       transform="translate(-24.993323,0)">
      <g
         id="g3748"
         inkscape:label="ink_ext_XXXXXX"
         transform="matrix(0.375,0,0,-0.375,191.45012,449.99075)">
        <g
           id="g3750"
           transform="scale(0.1,0.1)">
          <path
             inkscape:connector-curvature="0"
             d="m 2276.4256,5775.7888 c -361.7789,-131.6805 -765.32,-677.1905 -765.32,-1034.5927 0,-100.4222 -88.1296,-143.7829 -292.209,-143.7829 -218.0086,0 -357.14853,-46.9889 -357.14853,-120.6057 0,-64.153 153.05643,-62.1486 496.30113,6.4952 99.6991,19.9424 106.6764,5.0998 106.6764,-226.8127 l 0,-248.1506 -306.1255,-29.1524 c -329.32813,-31.3724 -369.45393,-46.0882 -325.01493,-119.2736 17.1007,-28.1756 151.07739,-36.3707 341.24033,-20.8684 l 313.0901,25.5115 79.2747,-273.6621 c 166.6177,-575.1569 509.7228,-895.1989 959.7074,-895.1989 338.6016,0 609.3966,157.5472 741.483,431.3615 111.865,231.9251 87.6856,357.161 -68.9229,357.161 -76.6741,0 -127.7732,-41.7495 -181.6506,-148.4258 -116.1021,-229.8954 -245.0805,-311.5044 -495.5399,-313.5976 -185.5452,-1.5477 -241.4904,21.6804 -375.7081,155.8854 -140.8779,140.8779 -310.7686,500.944 -310.7686,658.6434 0,45.289 146.1045,63.7598 586.7522,74.213 417.4449,9.8951 592.7652,30.6494 607.6078,71.8915 15.9717,44.3375 -127.5448,57.9749 -609.9294,57.9749 l -630.8105,0 0,449.9212 313.0774,30.1546 c 171.6286,16.5172 454.5641,30.1419 626.1801,30.1419 259.7456,0 313.0901,13.0412 313.0901,76.5346 0,68.8849 -60.3092,73.7436 -602.9902,48.7015 -589.0609,-27.1861 -602.9775,-25.575 -602.9775,69.5826 0,184.746 241.1986,549.6456 440.635,666.6484 264.3886,155.0735 479.0735,148.629 667.917,-20.0946 264.3886,-236.213 486.1016,-62.2628 245.9686,192.9792 -242.3023,257.5382 -552.094,322.0845 -913.8856,190.4166"
             style="fill:#000000;fill-opacity:1;fill-rule:nonzero;stroke:none"
             id="path3754" />
        </g>
      </g>
      <g
         id="g3787"
         inkscape:label="ink_ext_XXXXXX"
         transform="matrix(0.375,0,0,-0.375,337.0589,554.95619)">
        <g
           id="g3789"
           transform="scale(0.1,0.1)">
          <path
             inkscape:connector-curvature="0"
             d="m 2789.72,4172.94 c -270.56,-93.76 -543.89,-288.16 -669.91,-476.47 -58.72,-87.75 -110.87,-174.18 -118.01,-195.61 -8.44,-25.32 -71.3,-16.19 -184.64,26.84 C 1365.17,3699.25 673.48,3319.88 298.352,2694.66 L 175.5,2489.91 266.906,2310.75 c 50.297,-98.58 287.082,-489.94 526.5,-870.19 239.414,-380.25 495.934,-801.201 570.374,-935.998 74.71,-135.281 150.84,-253.972 170.02,-265.078 19.06,-11.035 221.2,101.18 447.89,248.625 226.79,147.52 800.72,504.586 1272.37,791.611 906.75,551.8 1279.69,792.6 1279.69,826.28 0,12.02 -107.88,193.78 -238.71,402.19 -300.69,478.97 -684.83,1175.22 -786.72,1425.93 -65.38,160.88 -102.97,203.42 -221.35,250.53 -182.1,72.47 -259.59,70.65 -497.25,-11.71 z m 478.97,-27.2 c 30.24,-11.85 152.42,-220.76 272.39,-465.72 119.9,-244.86 342.26,-652.64 495.42,-908.58 153.16,-255.94 277.88,-470.09 277.88,-477.14 0,-7.11 -102.38,-6.35 -230.35,1.72 -471.65,29.72 -684.14,-97.11 -808.34,-482.52 l -80.13,-248.62 -184.64,287.01 c -102.58,159.45 -270.76,433.27 -378.42,616.08 -107.66,182.81 -253.91,418.44 -329.06,530.15 -241.05,358.32 -263.66,418.95 -207.27,555.76 85.65,207.82 393.74,472.35 664.3,570.41 120.65,43.72 419.23,56.32 508.22,21.45 z M 1846.41,3458.75 c 85.73,-35.26 149.27,-100.48 204.75,-210.17 44.81,-88.62 156.54,-272.39 252.28,-414.99 94.51,-140.76 267.27,-420.47 383.9,-621.56 116.64,-201.09 270.48,-446.24 341.86,-544.78 l 129.8,-179.16 -106.03,24.92 c -332.72,78.18 -664.77,104.4 -811.69,64.1 -309.85,-85.01 -633.69,-531.42 -698.49,-962.86 l -29.1,-193.781 -62.16,117 c -34.08,64.144 -298.35,493.591 -584.999,950.621 -286.648,457.03 -542.664,879.88 -566.719,936 -39.812,92.9 -31.75,120.66 87.059,299.82 172.149,259.59 537.703,594.1 764.849,699.89 212.06,98.77 503.83,113.45 694.69,34.95 z M 4350.94,2192.97 c 40.22,-21.69 72.36,-50.95 71.42,-65.03 -1.97,-29.52 9.02,-22.52 -1204.86,-767.92 C 2482.59,908.746 2156.07,703.031 1652.62,374.148 l -91.4,-59.71 24.6,212.062 c 42.41,365.625 316.19,822.87 571.37,954.25 133.73,68.85 471.65,68.59 731.25,-0.56 325.4,-86.68 356.99,-78.49 382.92,99.31 12.58,86.32 63.17,241.31 112.17,343.69 87.37,182.53 184.97,260.37 400.69,319.56 106.03,29.1 481.65,-3.9 566.72,-49.78"
             style="fill:#000000;fill-opacity:1;fill-rule:nonzero;stroke:none"
             id="path3791" />
        </g>
      </g>
      <g
         id="g3823"
         inkscape:label="ink_ext_XXXXXX"
         transform="matrix(0.375,0,0,-0.375,193.67606,553.32543)">
        <g
           id="g3825"
           transform="scale(0.1,0.1)">
          <path
             inkscape:connector-curvature="0"
             d="m 1791.56,4367.59 -179.15,-166.56 -123.8,135.28 c -150.56,164.53 -305.89,182.32 -446.58,51.14 -182.811,-170.46 -197.714,-444.41 -34.01,-625.17 55.63,-61.42 53.45,-73.12 -32.692,-175.5 C 855.34,3444.19 830.031,3358.27 874.09,3243.09 c 53.148,-138.93 295.84,-391.21 376.35,-391.21 76.95,0 150.62,149.9 116.8,237.65 -57.78,149.91 196.72,222.74 293.88,84.09 111.85,-159.61 28.07,-358.31 -151.09,-358.31 -98.72,0 -169.23,-87.75 -141.03,-175.5 36.44,-113.34 282.67,-336.37 371.38,-336.37 58.75,0 115.42,56.67 210.23,210.23 124.15,201.1 129.84,205.47 130.84,100.55 1.67,-175.5 93.43,-274.22 254.89,-274.22 171.85,0 311.83,103.24 366.86,270.56 58.91,179.16 14.12,310.4 -129.2,378.58 -145.43,69.19 -135.28,96.57 135.28,365.08 l 190.13,188.69 -96.89,148.07 c -52.64,80.44 -106.91,148.08 -118.83,148.08 -12.29,0 -53.59,-40.22 -93.87,-91.4 -158.07,-200.89 -433.34,-47.54 -328.13,182.81 30.61,67.03 71,91.41 151.43,91.41 169.42,0 131.5,120.65 -122.96,391.21 -161.96,172.22 -275.57,161.85 -498.6,-45.5 z m 365.63,9.94 c 29.91,-24.48 85.59,-81.44 122.48,-125.31 67.64,-80.44 67.64,-80.44 -34.73,-168.46 -138.94,-119.46 -148.43,-362.3 -18.28,-467.91 103.23,-83.77 252.28,-88.75 361.96,-12.08 76.79,53.66 153.57,47 153.57,-13.33 0,-16.18 -72.7,-106.03 -162.71,-201.1 -90,-95.06 -188.84,-221.66 -221.2,-283.36 l -58.5,-111.51 131.63,-54.34 c 175.5,-72.45 225.95,-189.08 147.34,-340.54 -72.13,-138.93 -211.33,-203.96 -315.53,-147.39 -53.08,28.81 -69.47,76.1 -69.47,200.41 0,124.31 -13.8,162.7 -58.5,162.7 -104.81,0 -194.66,-73.12 -269.54,-219.37 -87.98,-171.85 -169.96,-186.02 -296.04,-51.19 -85.47,91.41 -86.15,97.03 -17.59,146.25 40.22,28.88 92.01,51.19 118.83,51.19 57.52,0 157.21,190.12 157.21,299.81 0,131.62 -129.93,317.91 -241.31,345.96 -147.43,37.13 -281.73,-53.46 -323.15,-217.99 -43.78,-173.89 -106.13,-171.85 -223.16,7.31 -115.125,176.24 -93.531,240.93 155.09,464.56 179.16,161.14 193.35,266.59 25.6,190.14 -123.93,-56.47 -204.52,29.02 -210.02,222.8 -8.72,307.13 272.7,402.52 442.23,149.91 46.62,-69.47 102.6,-133.82 122.44,-140.77 20.32,-7.11 124.32,69.84 234,173.13 204.75,192.8 257.38,214.09 347.35,140.48"
             style="fill:#000000;fill-opacity:1;fill-rule:nonzero;stroke:none"
             id="path3827" />
          <path
             inkscape:connector-curvature="0"
             d="m 2833.59,2340.79 c -41.02,-16.85 -131.71,-95.85 -206.57,-179.95 l -133.46,-149.9 -144.85,146.25 c -177.46,179.15 -289.4,189.46 -454.77,41.87 -108.7,-97.01 -120.66,-127.79 -120.66,-310.61 0,-160.87 16.67,-219.59 80.44,-283.36 l 80.44,-80.43 -107.86,-124.32 c -63.45,-73.12 -107.86,-166.46 -107.86,-226.68 0,-117.73 171.84,-373.137 314.44,-467.351 91.4,-60.395 97.03,-60.137 146.24,6.66 28.08,38.097 51.19,120.656 51.19,182.812 0,277.829 276.32,263.249 346.54,-18.281 27.17,-108.945 -61.35,-207.793 -225.88,-252.227 -146.89,-39.671 -149.49,-153.617 -7.17,-314.492 213.47,-241.3122 317.98,-246.6091 432.99,-21.937 104.82,204.75 165.56,241.226 170.47,102.375 9.06,-255.938 306.19,-326.0198 511.55,-120.657 100.06,100.055 124.31,153.563 124.31,274.219 0,157.219 -94.33,296.157 -201.09,296.157 -96.37,0 -58.5,73.124 153.38,296.152 197.99,208.41 203.38,219.44 158.94,325.41 -76.67,182.81 -129.8,202.68 -257.47,96.28 -131.63,-109.69 -190.45,-118.08 -270.57,-38.61 -126.07,125.04 -32.9,344.52 146.25,344.52 47.53,0 87.75,13.4 87.75,29.25 0,53.64 -204.75,318.95 -310.78,402.71 -107.05,84.56 -142.59,90.69 -255.94,44.14 z m 277.16,-223.82 106.75,-113.35 -109.69,-101.85 c -142.59,-132.41 -151.95,-327.54 -21.93,-457.55 107.89,-107.9 237.65,-113.86 361.96,-16.64 80.44,62.9 96.68,64.9 135.28,16.64 36.57,-45.7 18.29,-79.71 -109.68,-204.02 -252.28,-245.075 -361.37,-472.388 -226.69,-472.388 208.41,0 293.61,-235.453 150.84,-416.812 -144.84,-183.977 -384.15,-84.094 -341.65,142.594 12.34,65.812 6,130.832 -13.94,143.043 C 2968,681.945 2821.88,585 2738.24,435.094 2632.16,244.969 2600.96,232.641 2475.28,331.18 c -127.48,99.953 -124.31,163.058 10.97,218.761 139.8,57.567 182.81,133.778 182.81,323.903 0,193.776 -125.98,343.686 -288.84,343.686 -143.28,0 -223.49,-73.12 -256.65,-233.999 -13.57,-65.812 -43.16,-126.586 -65.1,-133.699 -51.88,-16.828 -230.35,239.728 -230.35,331.138 0,36.85 80.44,142.92 182.82,241.05 223.03,213.8 253.33,319.54 62.15,216.96 -62.82,-33.71 -88.53,-26.57 -141.42,39.24 -141.48,176.03 -19.45,515.53 185.3,515.53 67.11,0 182.54,-113.34 282.99,-277.87 39.22,-64.23 57.04,-55.07 236.2,121.35 230.34,226.82 321.61,242.16 474.59,79.74"
             style="fill:#000000;fill-opacity:1;fill-rule:nonzero;stroke:none"
             id="path3829" />
        </g>
      </g>
      <g
         id="g3862"
         inkscape:label="ink_ext_XXXXXX"
         transform="matrix(0.375,0,0,-0.375,332.32821,393.31421)">
        <g
           id="g3864"
           transform="scale(0.1,0.1)">
          <path
             inkscape:connector-curvature="0"
             d="m 601.211,4420.41 c -31.449,-51 -215.172,-1488.1 -290.27,-2270.53 -58.253,-606.94 -48.859,-687.38 80.278,-687.38 76.176,0 1085.901,608.11 2003.621,1206.68 424.13,276.62 862.74,553.89 979.88,619.43 230.34,128.86 283.34,199.39 204.75,272.49 -28.24,26.28 -288.85,114.82 -581.35,197.52 -291.47,82.42 -910.4,273.86 -1374.74,425.21 C 760.5,4465.09 645.219,4491.77 601.211,4420.41 z M 1694.67,3895.73 c 464.35,-149.43 978.46,-311.17 1138.92,-358.31 288.85,-84.85 291.36,-86.63 201.1,-142.59 -50.25,-31.15 -232.17,-147.22 -404.02,-257.77 -299.81,-192.86 -316.2,-198.72 -400.36,-143.24 -102.07,67.3 -424.12,68.89 -552.09,2.73 C 1451.93,2879.54 1323.16,2691 1284.76,2420.44 1262.84,2266.03 1246.78,2247.02 1023.75,2111.48 892.125,2031.5 730.633,1933.62 661.781,1892.11 l -124.312,-74.95 26.562,307.12 c 26.879,310.78 185.551,1649.54 225.774,1904.91 12.093,76.78 30.062,138.93 40.164,138.93 10.027,0 400.361,-122.95 864.701,-272.39 z m 473.49,-1003.64 c 20.03,-20.03 -32.91,-77.97 -135.28,-148.07 -138.94,-95.14 -172.01,-105.32 -190.13,-58.5 -12.74,32.9 -44.94,56.67 -76.78,56.67 -39.49,0 -48.7,-25.6 -32.91,-91.41 18.94,-78.9 -1.83,-106.16 -151.73,-199.26 -164.53,-102.19 -174.31,-104.02 -185.86,-34.74 -21.13,126.8 158.44,380.81 330.28,467.19 157.22,79.03 367.63,82.9 442.41,8.12"
             style="fill:#000000;fill-opacity:1;fill-rule:nonzero;stroke:none"
             id="path3866" />
          <path
             inkscape:connector-curvature="0"
             d="m 3886.59,3701.53 c -48.11,-32.25 -88.41,-125.72 -670.69,-1555.31 l -400.59,-983.53 0,-356.487 c 0,-197.437 -8.97,-403.789 -20.11,-462.515 l -20.11,-106.032 -789.75,0 c -566.72,0 -793.88,-11.875 -804.37,-42.047 -10.71,-30.793 193.78,-45.961 764.15,-56.671 738.57,-13.872 781.62,-10.942 833.63,56.671 30.07,39.098 201.8,224.86 380.25,411.329 l 325.41,340.031 453.95,1107.841 c 602.28,1469.81 563.59,1356.96 497.61,1451.53 -96.93,138.94 -447.49,263.49 -549.38,195.19 z m 274.22,-296.11 c 37.35,-24.12 27.99,-74.58 -43.66,-235.45 -92.82,-208.41 -113.73,-226.08 -219.59,-185.54 -48.39,18.53 -46.2,42.95 18.62,207.48 106.58,270.56 127.72,289.01 244.63,213.51 z m -224.06,-571.83 c 25.17,-65.99 -675.37,-1812.09 -752.16,-1874.766 -29.25,-23.871 -66.79,-44.762 -80.43,-44.762 -92.87,0 -29.92,215.718 305.14,1045.688 292.26,723.94 389.43,928.69 440.73,928.69 36.56,0 75.11,-24.38 86.72,-54.85 z M 3122.44,819 3232.12,840.938 3089.53,694.688 C 3011.11,614.25 2942,548.438 2935.97,548.438 c -6.11,0 -10.16,93.234 -9.14,210.234 1.59,182.812 7.31,199.027 43.87,124.312 35.04,-71.601 60.33,-82.265 151.74,-63.984"
             style="fill:#000000;fill-opacity:1;fill-rule:nonzero;stroke:none"
             id="path3868" />
          <path
             inkscape:connector-curvature="0"
             d="m 1741.52,3297.94 c -24.85,-40.22 16.31,-226.69 50.04,-226.69 54.01,0 75.14,65.81 51.64,160.87 -22.59,91.41 -67.78,120.66 -101.68,65.82"
             style="fill:#000000;fill-opacity:1;fill-rule:nonzero;stroke:none"
             id="path3870" />
          <path
             inkscape:connector-curvature="0"
             d="m 1979.86,3252.23 c 6.82,-43.87 35.83,-89.94 62.16,-98.71 32.9,-10.97 45.09,10.96 36.56,65.81 -6.83,43.87 -35.83,89.94 -62.16,98.72 -32.9,10.97 -45.09,-10.97 -36.56,-65.82"
             style="fill:#000000;fill-opacity:1;fill-rule:nonzero;stroke:none"
             id="path3872" />
          <path
             inkscape:connector-curvature="0"
             d="m 2179.47,3268.69 c -12.53,-32.91 -12.44,-74.5 0.22,-95.07 28.33,-46.03 123.75,32.91 123.75,102.38 0,71.48 -96.11,65.81 -123.97,-7.31"
             style="fill:#000000;fill-opacity:1;fill-rule:nonzero;stroke:none"
             id="path3874" />
          <path
             inkscape:connector-curvature="0"
             d="m 2420.44,3263.37 c -51.19,-18.61 -60.85,-155.56 -10.97,-155.56 17.55,0 54.1,25.6 78.32,54.85 52.81,63.76 9.43,128.63 -67.35,100.71"
             style="fill:#000000;fill-opacity:1;fill-rule:nonzero;stroke:none"
             id="path3876" />
          <path
             inkscape:connector-curvature="0"
             d="m 1499.06,3148.03 c 0,-84.09 93.29,-170.51 126.3,-117 28.75,46.62 -38.55,186.47 -89.74,186.47 -19.24,0 -36.56,-32.91 -36.56,-69.47"
             style="fill:#000000;fill-opacity:1;fill-rule:nonzero;stroke:none"
             id="path3878" />
          <path
             inkscape:connector-curvature="0"
             d="m 1266.4,2946.94 c 21.03,-54.85 122.62,-109.05 150.76,-80.44 39.67,40.34 -27.78,131.62 -97.25,131.62 -47.53,0 -66.26,-17.91 -53.51,-51.18"
             style="fill:#000000;fill-opacity:1;fill-rule:nonzero;stroke:none"
             id="path3880" />
          <path
             inkscape:connector-curvature="0"
             d="m 1096.88,2650.78 c 0,-58.5 97.96,-114.1 135.28,-76.78 24.68,24.68 -58.5,131.62 -102.38,131.62 -17.55,0 -32.9,-25.59 -32.9,-54.84"
             style="fill:#000000;fill-opacity:1;fill-rule:nonzero;stroke:none"
             id="path3882" />
          <path
             inkscape:connector-curvature="0"
             d="m 1006.51,2376.56 c -30.662,-49.53 -22.979,-58.17 79.4,-89.25 65.81,-19.98 156.81,33.24 117,68.42 -47.53,42 -174.93,55.52 -196.4,20.83"
             style="fill:#000000;fill-opacity:1;fill-rule:nonzero;stroke:none"
             id="path3884" />
        </g>
      </g>
    </g>
    <g
       transform="matrix(0.375,0,0,-0.375,566.87805,474.56251)"
       inkscape:label="ink_ext_XXXXXX"
       id="g3925">
      <g
         transform="scale(0.1,0.1)"
         id="g3927">
        <path
           id="path3929"
           style="fill:#000000;fill-opacity:1;fill-rule:nonzero;stroke:none"
           d="m 2166.33,4488.05 c -19.37,-25.49 -42.58,-129.8 -52.48,-235.83 -24.67,-264.36 -190.66,-502.84 -633.07,-909.53 C 877.5,2788.11 643.906,2437.8 546.414,1941.47 449.457,1447.88 574.996,975.094 894.949,628.875 1231.65,264.531 1623.38,110.199 2208.38,111.402 c 650.81,1.34 1129.24,187.325 1542.93,599.805 423.57,422.323 626.16,937.763 592.77,1508.133 -32.28,551.25 -227.14,818.85 -943.77,1295.99 -468,311.61 -565.7,402.29 -722.99,671.08 -77.02,131.62 -128.99,181.79 -185.59,179.15 -43.87,-2.04 -78.61,9.27 -78.61,25.6 0,44.36 -113.34,142.59 -164.53,142.59 -25.59,0 -63.56,-21.09 -82.26,-45.7 z m 469.83,-782.44 c 69.46,14.15 117.67,-1.02 162.7,-51.19 35.3,-39.33 206.58,-169.03 382.08,-289.31 563.06,-385.92 678.72,-492.27 800.72,-736.27 149.45,-298.91 159.69,-672.75 28.32,-1034.72 C 3710.23,768.188 3034.69,331.062 2124.28,373.945 1692.84,394.266 1428.26,488.801 1180.97,710.984 917.637,947.582 795.797,1195.59 775.855,1535.62 743.766,2082.7 990.844,2537.94 1656.28,3157.8 c 226.69,211.16 466.63,468.77 537.47,577.06 l 127.97,195.61 107.86,-122.49 c 86.93,-98.71 127.01,-118.58 206.58,-102.37"
           inkscape:connector-curvature="0" />
        <path
           id="path3931"
           style="fill:#000000;fill-opacity:1;fill-rule:nonzero;stroke:none"
           d="m 2895.75,2935.63 c -230.85,-81.03 -197.44,-165.76 80.44,-203.99 117,-16.09 259.22,-16.28 310.78,-0.42 73.51,22.62 32.91,33.39 -179.16,47.53 l -274.22,18.28 182.82,57.89 c 193.78,61.37 265.24,143.51 120.65,138.7 -46.94,-1.57 -153.56,-27.19 -241.31,-57.99"
           inkscape:connector-curvature="0" />
        <path
           id="path3933"
           style="fill:#000000;fill-opacity:1;fill-rule:nonzero;stroke:none"
           d="m 1681.88,2804.34 c 0,-39.1 60.32,-62.71 210.23,-82.26 171.84,-22.42 193.54,-32.43 118.83,-54.85 l -91.41,-27.42 91.41,-2.88 c 138.94,-4.39 255.94,35.37 255.94,86.98 0,53.03 -73.13,74.49 -376.6,110.53 -171.84,20.41 -208.4,15.13 -208.4,-30.1"
           inkscape:connector-curvature="0" />
        <path
           id="path3935"
           style="fill:#000000;fill-opacity:1;fill-rule:nonzero;stroke:none"
           d="m 1700.16,2557.55 c -80.44,-39.22 -105.12,-61.21 -54.85,-48.89 106.03,25.99 290.67,118.99 237.66,119.7 -20.11,0.26 -102.38,-31.6 -182.81,-70.81"
           inkscape:connector-curvature="0" />
        <path
           id="path3937"
           style="fill:#000000;fill-opacity:1;fill-rule:nonzero;stroke:none"
           d="m 3327.19,2212.61 c -369.08,-283.02 -910.41,-375.6 -1499.07,-256.38 -533.81,108.12 -521.78,107.35 -573.16,36.43 -136.57,-188.52 10.1,-663.23 280.66,-908.39 273,-247.375 413.16,-298.176 822.66,-298.176 325.41,0 385.74,10.66 548.44,96.914 236.4,125.312 511.56,422.272 621.67,670.902 124.67,281.53 190.22,656.41 127.86,731.25 -70.31,84.37 -146.25,67.63 -329.06,-72.55 z m 36.8,-399.11 c -188.87,-500.91 -553.73,-786.91 -1005.71,-788.35 -274.22,-0.88 -547.19,124.74 -727.91,334.97 -116.3,135.29 -199.71,337.45 -156.9,380.26 9.99,9.99 142.59,-7.38 292.5,-38.33 497.25,-102.63 961.91,-67.48 1367.44,103.44 270.56,114.04 270.56,114.04 230.58,8.01"
           inkscape:connector-curvature="0" />
      </g>
    </g>
    <text
       xml:space="preserve"
       style="font-size:40px;font-style:normal;font-weight:normal;line-height:125%;letter-spacing:0px;word-spacing:0px;fill:#000000;fill-opacity:1;stroke:none;font-family:Sans"
       x="135.7029"
       y="406.28204"
       id="text3408"
       sodipodi:linespacing="125%"><tspan
         sodipodi:role="line"
         id="tspan3410"
         x="135.7029"
         y="406.28204"
         style="font-size:64px;font-style:normal;font-variant:normal;font-weight:normal;font-stretch:normal;font-family:Ubuntu;-inkscape-font-specification:Ubuntu">+</tspan></text>
    <text
       xml:space="preserve"
       style="font-size:40px;font-style:normal;font-weight:normal;line-height:125%;letter-spacing:0px;word-spacing:0px;fill:#000000;fill-opacity:1;stroke:none;font-family:Sans"
       x="507.04706"
       y="407.52853"
       id="text3412"
       sodipodi:linespacing="125%"><tspan
         sodipodi:role="line"
         id="tspan3414"
         x="507.04706"
         y="407.52853"
         style="font-size:64px">→</tspan></text>
  </g>
</svg>
